<?xml version="1.0" encoding="utf-8"?>
<!-- Generator: Adobe Illustrator 16.0.0, SVG Export Plug-In . SVG Version: 6.00 Build 0)  -->
<!DOCTYPE svg PUBLIC "-//W3C//DTD SVG 1.1//EN" "http://www.w3.org/Graphics/SVG/1.1/DTD/svg11.dtd">
<svg version="1.1" id="Layer_1" xmlns="http://www.w3.org/2000/svg" xmlns:xlink="http://www.w3.org/1999/xlink" x="0px" y="0px"
	 width="35.526px" height="30px" viewBox="0 0 35.526 30" enable-background="new 0 0 35.526 30" xml:space="preserve">
<g>
	<g>
		<g>
			<defs>
				<polygon id="SVGID_1_" points="10.08,4.946 11.755,5.882 11.755,2.567 17.617,5.825 23.473,2.57 23.473,21.815 30.201,21.815 
					30.201,2.968 25.997,5.29 25.997,7.002 28.519,5.628 28.519,20.446 25.209,20.446 25.209,0 17.64,4.158 10.073,0 				"/>
			</defs>
			<clipPath id="SVGID_2_">
				<use xlink:href="#SVGID_1_"  overflow="visible"/>
			</clipPath>
			
				<linearGradient id="SVGID_3_" gradientUnits="userSpaceOnUse" x1="-113.6367" y1="-51.4321" x2="-113.0125" y2="-51.4321" gradientTransform="matrix(0 34.5244 -34.5244 0 -1755.561 3923.395)">
				<stop  offset="0" style="stop-color:#FCEB96"/>
				<stop  offset="1" style="stop-color:#9F6929"/>
			</linearGradient>
			<rect x="10.073" clip-path="url(#SVGID_2_)" fill="url(#SVGID_3_)" width="20.128" height="21.815"/>
		</g>
	</g>
	<g>
		<g>
			<defs>
				<polygon id="SVGID_4_" points="22.686,7.158 17.637,9.939 5.027,2.97 5.027,21.815 11.755,21.815 11.755,9.212 10.073,8.29 
					10.073,20.394 6.708,20.394 6.708,5.578 17.635,11.623 22.686,8.832 				"/>
			</defs>
			<clipPath id="SVGID_5_">
				<use xlink:href="#SVGID_4_"  overflow="visible"/>
			</clipPath>
			
				<linearGradient id="SVGID_6_" gradientUnits="userSpaceOnUse" x1="-113.6367" y1="-51.541" x2="-113.0127" y2="-51.541" gradientTransform="matrix(0 34.5244 -34.5244 0 -1765.6235 3923.395)">
				<stop  offset="0" style="stop-color:#FCEB96"/>
				<stop  offset="1" style="stop-color:#9F6929"/>
			</linearGradient>
			<rect x="5.027" y="2.97" clip-path="url(#SVGID_5_)" fill="url(#SVGID_6_)" width="17.659" height="18.846"/>
		</g>
	</g>
	<g>
		<path fill="#FCEB96" d="M4.824,29.893v-3.95c0-0.094,0.014-0.369,0.042-0.817H4.851c-0.08,0.21-0.147,0.371-0.201,0.483
			L2.67,29.893H2.545l-1.987-4.259c-0.063-0.138-0.125-0.313-0.182-0.524H0.358c0.018,0.249,0.027,0.494,0.027,0.741v4.042H0v-5.564
			h0.358l2.075,4.483c0.013,0.025,0.027,0.06,0.043,0.106c0.015,0.042,0.033,0.087,0.051,0.13c0.026,0.067,0.053,0.145,0.082,0.223
			h0.023l0.042-0.12c0.003-0.012,0.047-0.135,0.132-0.371l2.045-4.451h0.342v5.564H4.824z"/>
		<path fill="#FCEB96" d="M8.91,29.99c-0.786,0-1.414-0.26-1.879-0.782C6.563,28.685,6.33,28.005,6.33,27.17
			c0-0.887,0.239-1.599,0.719-2.133c0.48-0.533,1.136-0.8,1.965-0.8c0.75,0,1.359,0.255,1.822,0.768
			c0.464,0.515,0.697,1.188,0.697,2.022c0,0.921-0.237,1.644-0.714,2.174C10.343,29.729,9.708,29.99,8.91,29.99z M8.949,24.584
			c-0.646,0-1.179,0.234-1.597,0.704c-0.417,0.469-0.626,1.08-0.626,1.84c0,0.765,0.197,1.375,0.593,1.828
			c0.396,0.456,0.924,0.682,1.584,0.682c0.687,0,1.233-0.226,1.633-0.675c0.401-0.448,0.601-1.073,0.601-1.874
			c0-0.787-0.195-1.402-0.587-1.842C10.158,24.806,9.625,24.584,8.949,24.584z"/>
		<path fill="#FCEB96" d="M14.437,29.893H14.15l-2.034-5.564h0.432l1.609,4.483c0.068,0.187,0.116,0.361,0.144,0.527h0.015
			c0.026-0.131,0.08-0.311,0.16-0.534l1.71-4.477h0.412L14.437,29.893z"/>
		<path fill="#FCEB96" d="M17.473,29.893v-5.564h2.598v0.353h-2.214v2.231h2.057v0.352h-2.057v2.281H20.2v0.348H17.473
			L17.473,29.893z"/>
		<path fill="#FCEB96" d="M25.381,29.893l-3.314-4.495c-0.066-0.093-0.127-0.183-0.178-0.272l-0.05-0.077h-0.017
			c0.007,0.066,0.008,0.149,0.008,0.242v4.603h-0.385v-5.564h0.296l3.29,4.46c0.073,0.1,0.152,0.217,0.237,0.357h0.018
			c-0.012-0.183-0.018-0.336-0.018-0.466v-4.352h0.383v5.564H25.381z"/>
		<path fill="#FCEB96" d="M28.591,24.681v5.212H28.21v-5.212h-1.606v-0.353h3.594v0.353H28.591z"/>
		<path fill="#FCEB96" d="M32.902,29.99c-0.786,0-1.414-0.26-1.88-0.782c-0.468-0.523-0.701-1.203-0.701-2.038
			c0-0.887,0.24-1.599,0.721-2.133c0.479-0.533,1.134-0.8,1.965-0.8c0.751,0,1.358,0.255,1.822,0.768
			c0.464,0.515,0.697,1.188,0.697,2.022c0,0.921-0.238,1.644-0.715,2.174C34.334,29.729,33.7,29.99,32.902,29.99z M32.941,24.584
			c-0.646,0-1.18,0.234-1.597,0.704c-0.42,0.469-0.626,1.08-0.626,1.84c0,0.765,0.196,1.375,0.593,1.828
			c0.396,0.456,0.924,0.682,1.583,0.682c0.688,0,1.232-0.226,1.634-0.675c0.4-0.448,0.601-1.073,0.601-1.874
			c0-0.787-0.194-1.402-0.587-1.842C34.149,24.806,33.617,24.584,32.941,24.584z"/>
	</g>
</g>
</svg>
